Coordinates
version=1
nRows=16
nColumns=40
inDegrees=yes

Units are S.I. units (second, meters, Newtons, ...)
Angles are in degrees.

endheader
time	pelvis_tilt	pelvis_list	pelvis_rotation	pelvis_tx	pelvis_ty	pelvis_tz	hip_flexion_r	hip_adduction_r	hip_rotation_r	knee_angle_r	knee_angle_r_beta	ankle_angle_r	subtalar_angle_r	mtp_angle_r	hip_flexion_l	hip_adduction_l	hip_rotation_l	knee_angle_l	knee_angle_l_beta	ankle_angle_l	subtalar_angle_l	mtp_angle_l	lumbar_extension	lumbar_bending	lumbar_rotation	arm_flex_r	arm_add_r	arm_rot_r	elbow_flex_r	pro_sup_r	wrist_flex_r	wrist_dev_r	arm_flex_l	arm_add_l	arm_rot_l	elbow_flex_l	pro_sup_l	wrist_flex_l	wrist_dev_l
      0.31000000	     -2.22442089	     -4.99759724	      8.50027800	     -0.34899193	      0.93081074	     -1.41421585	     26.75646337	      3.24933343	    -15.52561284	    -26.24514805	     -0.45806425	     -3.05157543	    -13.03235504	      0.79019101	     -7.70243926	     15.16178672	     13.89460202	    -40.55856556	     -0.70788051	    -19.12753250	      7.43700803	    -10.64178403	      2.27468082	      6.90261474	    -10.54090770	    -13.44337674	    -12.29090779	    -21.86651639	      7.35434835	     89.95437384	      0.00000000	      0.00000000	      9.09210365	     22.13290696	     16.97859342	     60.88021726	     89.95437384	      0.00000000	      0.00000000
      0.32000000	     -2.08684342	     -5.49536518	      8.27783097	     -0.33488433	      0.93257096	     -1.41265370	     25.68195045	      4.33362882	    -14.85195900	    -26.20423075	     -0.45735010	     -1.78856815	    -13.34909959	      0.74686994	     -5.77838343	     15.92998324	     13.44883550	    -43.92381412	     -0.76661518	    -17.32408036	      9.99707209	    -10.47300210	      2.20204990	      7.32981908	    -10.01203965	    -12.98594843	    -12.03321982	    -22.18835514	      7.59055151	     89.95437384	      0.00000000	      0.00000000	      8.14745165	     21.62439240	     16.34959519	     61.39267492	     89.95437384	      0.00000000	      0.00000000
      0.33000000	     -2.63834966	     -6.07771740	      8.23777200	     -0.32183800	      0.93353425	     -1.41137866	     25.32482566	      5.34416188	    -14.20860626	    -25.81552228	     -0.45056586	     -1.57356225	    -14.48441524	      1.60845390	     -2.64032090	     16.75481551	     12.86139315	    -47.66667845	     -0.83194048	    -14.63356684	     12.48841311	     -9.61298001	      2.85912927	      7.75382645	     -9.60969579	    -12.54072075	    -11.70197008	    -23.69539358	      8.00978418	     89.95437384	      0.00000000	      0.00000000	      7.42548539	     20.82468546	     15.94872085	     61.41615173	     89.95437384	      0.00000000	      0.00000000
      0.34000000	     -2.41974274	     -6.14221717	      8.06107239	     -0.30840724	      0.93610726	     -1.41047118	     23.97058144	      5.84813791	    -13.63798436	    -25.50438765	     -0.44513554	     -0.59357269	    -14.20887380	      1.62767517	     -0.84263454	     16.91560577	     12.53015800	    -50.34884159	     -0.87875306	    -12.17490042	     14.13744312	     -9.44577692	      2.51783275	      7.75435051	     -9.04194675	    -11.93985506	    -11.39944855	    -24.08215602	      8.56402168	     89.95437384	      0.00000000	      0.00000000	      6.64332726	     20.18411821	     15.50427920	     61.43719225	     89.95437384	      0.00000000	      0.00000000
      0.35000000	     -3.16568215	     -6.21768576	      8.12034011	     -0.29651584	      0.93724004	     -1.41004802	     23.87953580	      5.96569135	    -13.65943415	    -25.41529687	     -0.44358061	      0.86707105	    -14.06367928	      7.87806775	      2.65307430	     16.76283106	     11.43547580	    -53.54341271	     -0.93450884	     -7.30756023	     15.13437529	      4.89486578	      3.17690265	      7.64538733	     -8.55046205	    -11.30013198	    -10.95218237	    -26.43716974	      9.01382737	     89.95437384	      0.00000000	      0.00000000	      6.12210342	     19.47620253	     14.65989381	     60.97184464	     89.95437384	      0.00000000	      0.00000000
      0.36000000	     -3.32276907	     -6.16914543	      8.26752840	     -0.28419323	      0.93945230	     -1.40995418	     22.86115180	      5.99462600	    -13.91757055	    -24.84929081	     -0.43370194	      1.38839972	    -13.67460263	      7.60952062	      5.15284934	     16.46843409	     10.50416868	    -55.71127726	     -0.97234522	     -5.75978099	     16.77448040	      4.89049175	      3.18674286	      7.46701164	     -8.22313916	    -10.69537807	    -10.61838150	    -26.58817486	      9.82422800	     89.95437384	      0.00000000	      0.00000000	      5.49505356	     18.79279299	     14.03307675	     60.42800847	     89.95437384	      0.00000000	      0.00000000
      0.37000000	     -3.28178538	     -5.88173189	      8.38700053	     -0.27190985	      0.94200933	     -1.41012684	     21.54774681	      5.81142264	    -14.08679243	    -24.24126228	     -0.42308984	      2.07734500	    -13.23402892	      7.33435331	      7.25141831	     15.83717227	      9.72158993	    -57.35943523	     -1.00111100	     -4.40842816	     17.67044829	      4.86436448	      2.91668720	      7.07700819	     -7.80365394	     -9.92317135	    -10.36156202	    -26.48142082	     10.34477173	     89.95437384	      0.00000000	      0.00000000	      4.88075414	     18.24988905	     13.23166179	     59.75195843	     89.95437384	      0.00000000	      0.00000000
      0.38000000	     -3.29638368	     -5.59755307	      8.73231457	     -0.25979231	      0.94454253	     -1.41070719	     20.21192662	      5.54860868	    -14.43957203	    -23.46764398	     -0.40958766	      2.77005334	    -12.73257671	      7.04253648	      9.46522601	     15.08973074	      8.67843828	    -58.72934921	     -1.02502051	     -3.02879081	     18.18266210	      4.89039127	      2.73331809	      6.65539838	     -7.60963595	     -9.18811809	    -10.05710581	    -26.40518363	     11.07709847	     89.95437384	      0.00000000	      0.00000000	      4.36014686	     17.59598210	     12.52138446	     58.67365992	     89.95437384	      0.00000000	      0.00000000
      0.39000000	     -3.60590984	     -5.18191680	      9.30428213	     -0.24815791	      0.94638348	     -1.41194965	     19.37625736	      4.74480915	    -15.96591061	    -23.07382178	     -0.40271416	      3.07029884	    -11.25503120	      3.88640088	     12.13845301	     13.87791174	      7.27352292	    -60.06649553	     -1.04835812	      0.46159576	     18.11978534	     15.88065955	      2.83983422	      6.04248018	     -7.61247603	     -8.40560566	     -9.76535913	    -26.56127709	     11.75741372	     89.95437384	      0.00000000	      0.00000000	      3.76789784	     17.09595160	     11.47146763	     57.54425765	     89.95437384	      0.00000000	      0.00000000
      0.40000000	     -3.64951110	     -4.73639918	      9.51036454	     -0.23611573	      0.94870560	     -1.41243987	     18.05891170	      4.38233945	    -16.22557200	    -22.27468823	     -0.38876665	      3.58282297	    -10.88225932	      3.70524545	     14.05415616	     12.86286907	      6.64793681	    -60.54670102	     -1.05673928	      1.40908708	     18.22860683	     15.39351615	      2.63396870	      5.44355728	     -7.29989778	     -7.55340984	     -9.52749109	    -26.27846087	     12.46646968	     89.95437384	      0.00000000	      0.00000000	      3.18950624	     16.58134423	     10.70420251	     56.14387051	     89.95437384	      0.00000000	      0.00000000
      0.41000000	     -3.64265885	     -4.20939094	      9.94984907	     -0.22418830	      0.95088676	     -1.41361201	     16.76155960	      3.62381535	    -17.54558105	    -21.74766905	     -0.37956843	      4.23873887	     -9.07430900	      2.70997080	     15.89815076	     11.57134065	      5.78641261	    -60.72892386	     -1.05991967	      2.41659873	     18.25622471	     15.38305021	      2.34963793	      4.78150261	     -7.17035100	     -6.85532383	     -9.39364972	    -25.08934551	     13.44865718	     89.95437384	      0.00000000	      0.00000000	      2.66360596	     16.10292648	      9.73641869	     54.60488393	     89.95437384	      0.00000000	      0.00000000
      0.42000000	     -3.77001545	     -3.85512567	     10.22834277	     -0.21243188	      0.95270372	     -1.41432721	     15.54287707	      3.31223383	    -18.14378705	    -20.86311036	     -0.36412997	      4.49871297	     -8.55399729	      2.34826764	     17.81802356	     10.57398384	      5.23556990	    -60.60974887	     -1.05783968	      3.23450476	     18.25793023	     15.16911763	      2.21630160	      4.27884482	     -6.92129857	     -5.95903664	     -9.25161411	    -24.66145794	     14.19460346	     89.95437384	      0.00000000	      0.00000000	      2.13519555	     15.68971271	      8.71661252	     52.84530900	     89.95437384	      0.00000000	      0.00000000
      0.43000000	     -3.85770116	     -3.32545536	     10.06545775	     -0.19998007	      0.95448413	     -1.41442283	     14.23565622	      2.96215340	    -18.30159387	    -20.01948318	     -0.34940590	      4.97722127	     -7.91125212	      2.05034266	     19.31907737	      9.60789785	      5.40431107	    -59.95788490	     -1.04646250	      3.70867916	     18.16161803	     14.90084868	      2.05392059	      3.60553986	     -6.28268419	     -5.11690633	     -9.11776862	    -24.19963859	     15.02917731	     89.95437384	      0.00000000	      0.00000000	      1.53306459	     15.24542987	      7.87310090	     50.91870892	     89.95437384	      0.00000000	      0.00000000
      0.44000000	     -4.01966921	     -2.89289181	      9.81528085	     -0.18763669	      0.95580207	     -1.41422707	     13.08488880	      2.71603229	    -18.39734139	    -19.26181046	     -0.33618201	      5.43511892	     -7.32175602	      1.82446371	     20.83612431	      8.84187988	      5.77453525	    -58.98792699	     -1.02953354	      4.07105046	     17.99628512	     14.63248213	      1.98486847	      3.00673759	     -5.60164829	     -4.21574348	     -9.02662734	    -23.62447804	     15.81764146	     89.95437384	      0.00000000	      0.00000000	      0.88848226	     14.84125649	      7.15657712	     48.93579696	     89.95437384	      0.00000000	      0.00000000
      0.45000000	     -4.02830141	     -2.38251310	      9.38947165	     -0.17483028	      0.95712473	     -1.41402022	     11.68154196	      2.45245010	    -18.25894935	    -18.38041105	     -0.32079869	      5.78054958	     -6.37619417	      1.54044642	     21.97485827	      8.14799505	      6.46928004	    -57.65567669	     -1.00628139	      4.31488699	     17.77763038	     14.41646989	      1.78637509	      2.37836777	     -4.72739873	     -3.47770642	     -9.01418422	    -22.84985722	     16.82641790	     89.95437384	      0.00000000	      0.00000000	      0.32854330	     14.44787518	      6.26004559	     46.63065428	     89.95437384	      0.00000000	      0.00000000
      0.46000000	     -4.24014865	     -2.20543082	      9.00994106	     -0.16216598	      0.95748904	     -1.41329377	     10.80399734	      2.43947729	    -18.68973810	    -17.96897250	     -0.31361773	      6.22328532	     -6.25695894	      1.39666829	     23.44124245	      7.96353058	      7.34550896	    -56.17090019	     -0.98036715	      4.52221477	     17.58659117	     14.21393758	      1.84508174	      1.99464881	     -4.16039651	     -2.45416587	     -8.91003469	    -22.49455816	     17.60405845	     89.95437384	      0.00000000	      0.00000000	     -0.76471780	     14.15086045	      5.82764990	     45.09874857	     89.95437384	      0.00000000	      0.00000000
